<mxfile host="app.diagrams.net" modified="2023-04-22T00:43:09.450Z" agent="Mozilla/5.0 (Windows NT 10.0; Win64; x64) AppleWebKit/537.36 (KHTML, like Gecko) Chrome/112.0.0.0 Safari/537.36 Edg/112.0.1722.48" version="21.2.1" etag="hxrmKcDaD7lafMPWtvdu" type="github">
  <diagram name="Page-1" id="DRH5elZ8hhlmxrRXddUr">
    <mxGraphModel>
      <root>
        <mxCell id="0" />
        <mxCell id="1" parent="0" />
      </root>
    </mxGraphModel>
  </diagram>
</mxfile>
